#!OML:ASF F:\VICON\USERDATA\INSTALL\Justin_Nancy\Justin_Nancy.ASF
:FULLY-SPECIFIED
:DEGREES
32
root 10.9961 15.8564 -9.05739 -2.89139 -39.9274 7.45638
lowerback 17.2911 -0.0182493 -0.364844
upperback 2.04379 -0.173801 -0.396946
thorax -7.5009 -0.0995944 -0.174593
lowerneck -16.8812 -0.29569 -9.02951
upperneck 18.3327 0.473234 6.79809
head 8.44185 0.290672 3.85781
rclavicle -1.0476e-013 3.18055e-015
rhumerus -55.3572 15.4055 -87.4218
rradius 112.569
rwrist -5.99083
rhand -16.1071 22.709
rfingers 7.12502
rthumb 10.0969 -7.02876
lclavicle -1.0476e-013 3.18055e-015
lhumerus -46.5041 -9.67522 94.62
lradius 109.957
lwrist 26.2375
lhand -20.6069 5.33909
lfingers 7.12502
lthumb 5.75387 35.241
rfemur -29.569 -9.16914 28.8629
rtibia 72.4772
rfoot -18.5534 -12.3183
rtoes -18.7277
lfemur -23.22 -7.98 4.0543
ltibia 24.8757
lfoot 2.72195 7.92332
ltoes -18.4015
33
root 10.9278 15.8649 -8.66836 -4.30182 -41.0451 9.89213
lowerback 17.8554 0.551417 -1.71728
upperback 1.79279 0.260288 -0.908639
thorax -8.08716 0.145871 -0.0622804
lowerneck -15.8715 -0.362246 -9.70378
upperneck 17.6206 0.380174 7.27988
head 8.02672 0.246893 4.09329
rclavicle -7.03698e-014 6.36111e-015
rhumerus -55.786 15.1689 -87.2284
rradius 112.903
rwrist -6.05758
rhand -15.9078 22.8344
rfingers 7.12502
rthumb 10.2891 -6.89397
lclavicle -7.03698e-014 6.36111e-015
lhumerus -47.2618 -10.8259 95.4767
lradius 109.585
lwrist 26.1839
lhand -22.1016 3.26033
lfingers 7.12502
lthumb 4.31065 33.1965
rfemur -31.0023 -9.43548 25.4604
rtibia 76.901
rfoot -18.2821 -6.7523
rtoes 0.294775
lfemur -22.236 -8.40444 2.24872
ltibia 24.2808
lfoot 2.56552 8.42726
ltoes -20.442
34
root 10.8685 15.8308 -8.24307 -5.18634 -43.0673 11.3523
lowerback 18.1456 1.08205 -2.28243
upperback 1.83813 0.797465 -1.3077
thorax -8.20627 0.413448 -0.306691
lowerneck -15.9296 -0.158587 -9.72989
upperneck 17.2029 0.672512 7.35919
head 7.87 0.400488 4.14601
rclavicle -8.60738e-014 -2.22639e-014
rhumerus -55.7052 15.4586 -87.2084
rradius 113.241
rwrist -5.67802
rhand -15.3732 22.8791
rfingers 7.12502
rthumb 10.8048 -6.82299
lclavicle -8.60738e-014 -2.22639e-014
lhumerus -47.5796 -11.4723 95.9532
lradius 109.498
lwrist 25.4309
lhand -20.3598 5.03509
lfingers 7.12502
lthumb 5.99246 34.9303
rfemur -33.0882 -9.95666 23.6455
rtibia 80.8793
rfoot -15.2932 -5.90558
rtoes 2.40222
lfemur -21.1747 -8.65907 1.4181
ltibia 24.808
lfoot 0.983547 9.98168
ltoes -21.9943
35
root 10.7964 15.8052 -7.82049 -5.88338 -45.748 12.0672
lowerback 18.5778 1.57134 -2.48639
upperback 2.08716 1.35809 -1.5306
thorax -8.17836 0.678785 -0.576658
lowerneck -16.5953 0.185861 -9.23231
upperneck 16.9151 1.1799 6.94254
head 7.85189 0.648324 3.97838
rclavicle -5.68524e-014 1.51076e-014
rhumerus -55.2779 16.2333 -87.4305
rradius 113.394
rwrist -4.9539
rhand -15.0596 23.2191
rfingers 7.12502
rthumb 11.1073 -6.46693
lclavicle -5.68524e-014 1.51076e-014
lhumerus -47.7378 -11.6624 96.1806
lradius 109.587
lwrist 24.3976
lhand -19.7753 5.09005
lfingers 7.12502
lthumb 6.5567 34.9685
rfemur -34.7208 -9.98017 22.8032
rtibia 84.5928
rfoot -13.6011 -5.26165
rtoes 7.25755
lfemur -18.8993 -6.32169 0.56831
ltibia 25.789
lfoot -0.329372 10.363
ltoes -25.5728
36
root 10.7744 15.6918 -7.52553 -6.33147 -46.3281 13.274
lowerback 19.7688 1.50358 -3.98349
upperback 1.99833 0.885862 -1.53647
thorax -8.94702 0.507062 0.362058
lowerneck -17.0797 0.514765 -9.00195
upperneck 16.2277 1.7191 6.53551
head 7.66929 0.898922 3.85024
rclavicle -2.40529e-014 1.35174e-014
rhumerus -54.4168 17.0934 -87.5941
rradius 113.111
rwrist -4.07824
rhand -14.717 23.6988
rfingers 7.12502
rthumb 11.4377 -5.96922
lclavicle -2.40529e-014 1.35174e-014
lhumerus -47.4434 -11.8146 96.4435
lradius 109.634
lwrist 24.3024
lhand -19.6298 4.48482
lfingers 7.12502
lthumb 6.69717 34.3589
rfemur -37.7667 -11.5841 22.368
rtibia 88.4577
rfoot -12.9207 -4.5399
rtoes 11.2122
lfemur -19.0919 -2.82204 -0.239223
ltibia 27.5525
lfoot -2.92617 4.52569
ltoes -31.9148
37
root 10.6711 15.6734 -6.98811 -8.9732 -49.3763 15.7304
lowerback 19.1529 1.93293 -4.21625
upperback 2.81533 1.37472 -2.24187
thorax -7.72271 0.7038 -0.36639
lowerneck -17.1829 0.876102 -8.92584
upperneck 15.2919 2.2535 6.3993
head 7.33715 1.16496 3.82539
rclavicle 8.28932e-014 -3.65764e-014
rhumerus -53.595 17.6178 -87.9182
rradius 112.561
rwrist -2.79338
rhand -14.7156 24.3436
rfingers 7.12502
rthumb 11.439 -5.32429
lclavicle 8.28932e-014 -3.65764e-014
lhumerus -46.8913 -12.181 96.6511
lradius 109.639
lwrist 24.4673
lhand -19.6022 4.61528
lfingers 7.12502
lthumb 6.72382 34.4885
rfemur -38.6547 -11.8456 19.8733
rtibia 91.2283
rfoot -13.4724 -1.06776
rtoes 12.4798
lfemur -16.4673 -2.0012 -2.36772
ltibia 29.8923
lfoot -7.69086 4.02159
ltoes -35.4966
38
root 10.5831 15.6271 -6.58478 -9.76132 -50.7938 16.5749
lowerback 19.4597 1.84445 -4.34658
upperback 3.05217 1.19098 -2.43519
thorax -7.62434 0.606991 -0.456525
lowerneck -17.0935 1.39148 -8.92678
upperneck 14.3342 2.94292 6.55327
head 6.94879 1.52792 3.91849
rclavicle 1.98785e-015 -1.66979e-014
rhumerus -53.2449 17.8554 -88.2018
rradius 111.974
rwrist -1.40759
rhand -15.1921 24.8237
rfingers 7.12502
rthumb 10.9795 -4.8692
lclavicle 1.98785e-015 -1.66979e-014
lhumerus -46.3477 -12.7427 96.9818
lradius 109.664
lwrist 24.6928
lhand -18.7264 5.84792
lfingers 7.12502
lthumb 7.56922 35.6925
rfemur -40.5617 -12.8537 19.8586
rtibia 93.4213
rfoot -13.8322 0.624587
rtoes 11.2224
lfemur -15.6775 -1.06496 -3.10104
ltibia 32.0544
lfoot -10.8384 3.11252
ltoes -32.8973
39
root 10.4812 15.5741 -6.18367 -9.74111 -52.7669 16.5713
lowerback 19.6084 1.93736 -4.25674
upperback 3.16902 1.3327 -2.27775
thorax -7.58241 0.67008 -0.374809
lowerneck -16.5247 1.93603 -9.53026
upperneck 12.5581 3.70766 7.22892
head 6.1907 1.95367 4.24668
rclavicle 1.5704e-014 -1.27222e-014
rhumerus -53.1157 17.7464 -88.2992
rradius 111.127
rwrist -0.310826
rhand -15.6733 25.0575
rfingers 7.12502
rthumb 10.5153 -4.65947
lclavicle 1.5704e-014 -1.27222e-014
lhumerus -45.5897 -13.6426 97.5682
lradius 109.484
lwrist 24.9136
lhand -17.5744 7.1301
lfingers 7.12502
lthumb 8.68109 36.9316
rfemur -42.7487 -13.3644 21.1638
rtibia 94.9207
rfoot -13.9556 1.61174
rtoes 8.49182
lfemur -14.8673 0.306956 -3.1817
ltibia 33.9142
lfoot -13.1856 2.20192
ltoes -32.6644
40
root 10.3791 15.5132 -5.85242 -11.0097 -53.7474 18.2689
lowerback 20.2133 1.93705 -5.83822
upperback 3.16737 0.942571 -2.25222
thorax -7.92461 0.524315 0.635619
lowerneck -18.8444 2.04177 -8.5183
upperneck 14.6242 3.94633 6.12665
head 7.27499 2.00444 3.86019
rclavicle 2.22639e-014 -2.14687e-014
rhumerus -52.9214 17.5792 -88.4406
rradius 109.881
rwrist 0.330231
rhand -15.841 25.0557
rfingers 7.12502
rthumb 10.3536 -4.6694
lclavicle 2.22639e-014 -2.14687e-014
lhumerus -44.7785 -14.3897 98.1314
lradius 109.378
lwrist 24.7479
lhand -16.6906 7.5601
lfingers 7.12502
lthumb 9.53385 37.3244
rfemur -45.2348 -14.6784 21.9506
rtibia 96.1124
rfoot -14.1614 2.37226
rtoes 7.22715
lfemur -14.4966 1.68529 -4.49754
ltibia 35.6758
lfoot -15.2558 0.961225
ltoes -30.83
41
root 10.2521 15.4658 -5.50892 -13.3116 -54.2617 21.6081
lowerback 20.686 2.04102 -8.93384
upperback 2.6639 0.355097 -1.91286
thorax -8.72151 0.377159 2.89936
lowerneck -18.2427 2.36851 -9.71168
upperneck 14.9195 4.66476 6.04424
head 7.18637 2.25953 4.08971
rclavicle 2.24627e-014 -2.38542e-014
rhumerus -53.7712 17.8963 -87.9123
rradius 108.583
rwrist 0.479227
rhand -16.314 24.8089
rfingers 7.12502
rthumb 9.89724 -4.93842
lclavicle 2.24627e-014 -2.38542e-014
lhumerus -44.592 -14.2826 99.7026
lradius 109.313
lwrist 24.262
lhand -16.2526 7.94516
lfingers 7.12502
lthumb 9.95643 37.6897
rfemur -48.059 -16.3743 21.945
rtibia 96.8821
rfoot -14.3411 2.90447
rtoes 8.4637
lfemur -14.1242 1.98003 -6.91871
ltibia 37.0361
lfoot -17.5169 -0.923315
ltoes -22.2921
42
root 10.1228 15.4352 -5.16769 -13.7154 -54.733 22.7579
lowerback 20.2137 1.36489 -9.28785
upperback 2.77928 -0.593481 -2.3463
thorax -8.22872 -0.0972354 2.88694
lowerneck -17.1789 3.00807 -10.4478
upperneck 13.424 5.46909 6.97293
head 6.40043 2.72644 4.50516
rclavicle 3.55825e-014 1.19271e-014
rhumerus -53.6912 17.7578 -88.8327
rradius 107.157
rwrist 0.425998
rhand -17.9105 24.2501
rfingers 7.12502
rthumb 8.35671 -5.56455
lclavicle 3.55825e-014 1.19271e-014
lhumerus -43.0638 -15.1529 98.9508
lradius 109.13
lwrist 23.7413
lhand -15.3965 8.09389
lfingers 7.12502
lthumb 10.7823 37.7972
rfemur -50.6887 -17.8498 23.9453
rtibia 96.7539
rfoot -14.6858 2.03479
rtoes 7.91468
lfemur -13.9096 3.79465 -8.50099
ltibia 38.2073
lfoot -19.3124 1.51661
ltoes -32.8773
43
root 9.98495 15.4331 -4.79245 -12.0434 -56.035 20.1898
lowerback 20.9188 1.01111 -7.25502
upperback 3.03354 -0.652388 -2.15604
thorax -8.34265 -0.187471 1.96869
lowerneck -16.7699 3.22554 -10.5581
upperneck 12.9023 5.71476 7.22453
head 6.12984 2.8719 4.59368
rclavicle 1.23644e-013 -2.14687e-014
rhumerus -53.9749 16.4576 -89.2387
rradius 105.758
rwrist 0.324263
rhand -19.2107 24.0268
rfingers 7.12502
rthumb 7.10174 -5.83404
lclavicle 1.23644e-013 -2.14687e-014
lhumerus -41.6562 -16.864 98.7916
lradius 108.753
lwrist 22.3604
lhand -15.2173 7.94594
lfingers 7.12502
lthumb 10.9552 37.6401
rfemur -51.3777 -18.4554 28.268
rtibia 95.4407
rfoot -15.2093 0.232608
rtoes 4.76586
lfemur -12.3219 4.28835 -7.30246
ltibia 39.0402
lfoot -21.1862 1.14785
ltoes -28.8633
44
root 9.85402 15.425 -4.48759 -11.2918 -55.8704 20.4574
lowerback 20.71 0.703238 -7.21829
upperback 3.01594 -1.0693 -2.57347
thorax -8.22438 -0.398455 1.60494
lowerneck -17.2798 3.15465 -9.72182
upperneck 12.9558 5.46415 7.23494
head 6.27856 2.79707 4.46181
rclavicle -5.94366e-014 6.04305e-014
rhumerus -54.0609 13.922 -89.5621
rradius 104.37
rwrist -0.184847
rhand -19.1912 24.1473
rfingers 7.12502
rthumb 7.12059 -5.71294
lclavicle -5.94366e-014 6.04305e-014
lhumerus -39.8088 -19.3099 98.1909
lradius 108.331
lwrist 21.4642
lhand -14.9859 7.78292
lfingers 7.12502
lthumb 11.1783 37.4651
rfemur -54.0865 -19.6179 31.371
rtibia 93.9307
rfoot -15.4493 -1.5499
rtoes 1.75234
lfemur -12.5897 5.18619 -8.16236
ltibia 39.7535
lfoot -22.514 1.76568
ltoes -30.2389
